<svg id="Capa_1" enable-background="new 0 0 510 510" height="512" viewBox="0 0 510 510" width="512" xmlns="http://www.w3.org/2000/svg"><path d="m393.545 10v424.15c0 5.52-4.48 10-10 10h-300.49c-5.53 0-10-4.48-10-10v-424.15c0-5.52 4.47-10 10-10h300.49c5.52 0 10 4.48 10 10z" fill="#ff5c87"/><path d="m393.545 10v424.15c0 5.52-4.48 10-10 10h-150.25v-444.15h150.25c5.52 0 10 4.48 10 10z" fill="#ff3369"/><path d="m330.095 166.79v333.21c0 5.52-4.48 10-10 10h-300.49c-5.53 0-10-4.48-10-10v-424.16c0-5.52 4.47-10 10-10h209.55c1.44 0 2.85.31 4.14.9 1.08.49 2.07 1.18 2.93 2.03l90.94 90.94c.86.86 1.54 1.85 2.03 2.93.59 1.29.9 2.7.9 4.15z" fill="#ffeaa3"/><path d="m330.095 166.79v333.21c0 5.52-4.48 10-10 10h-166.04v-444.16h75.1c1.44 0 2.85.31 4.14.9 1.08.49 2.07 1.18 2.93 2.03l90.94 90.94c.86.86 1.54 1.85 2.03 2.93.59 1.29.9 2.7.9 4.15z" fill="#ffcf5e"/><path d="m329.195 162.64h-85.9c-5.52 0-10-4.47-10-10v-85.9c1.08.49 2.07 1.18 2.93 2.03l90.94 90.94c.86.86 1.54 1.85 2.03 2.93z" fill="#ff9138"/><path d="m123.271 195.867h-61.293c-8.284 0-15-6.716-15-15s6.716-15 15-15h61.293c8.284 0 15 6.716 15 15s-6.715 15-15 15z" fill="#44446b"/><path d="m278.895 270.71c0 8.28-6.72 15-15 15h-201.915c-8.29 0-15-6.72-15-15 0-8.29 6.71-15 15-15h201.915c8.28 0 15 6.71 15 15z" fill="#44446b"/><path d="m263.895 285.71h-109.84v-30h109.84c8.28 0 15 6.71 15 15 0 8.28-6.72 15-15 15z" fill="#35355e"/><path d="m278.895 338.84c0 8.29-6.72 15-15 15h-201.915c-8.29 0-15-6.71-15-15 0-8.28 6.71-15 15-15h201.915c8.28 0 15 6.72 15 15z" fill="#44446b"/><path d="m278.895 338.84c0 8.29-6.72 15-15 15h-109.84v-30h109.84c8.28 0 15 6.72 15 15z" fill="#35355e"/><path d="m278.895 406.98c0 8.28-6.72 15-15 15h-201.915c-8.29 0-15-6.72-15-15 0-8.29 6.71-15 15-15h201.915c8.28 0 15 6.71 15 15z" fill="#44446b"/><path d="m278.895 406.98c0 8.28-6.72 15-15 15h-109.84v-30h109.84c8.28 0 15 6.71 15 15z" fill="#35355e"/><path d="m500.395 133.33v239.09c0 1.43-.3 2.84-.89 4.14l-25.57 56.25c-1.77 3.91-5.43 5.87-9.1 5.87-3.66 0-7.33-1.96-9.11-5.87l-25.57-56.25c-.59-1.3-.89-2.71-.89-4.14v-239.09z" fill="#44446b"/><path d="m500.395 133.33v239.09c0 1.43-.3 2.84-.89 4.14l-25.57 56.25c-1.77 3.91-5.43 5.87-9.1 5.87v-305.35z" fill="#35355e"/><path d="m500.395 92.72v46.73h-71.13v-46.02c0-19.71 15.95-36.27 35.57-36.28 19.6 0 35.56 15.92 35.56 35.57z" fill="#ff5c87"/><path d="m500.395 92.72v46.73h-35.56v-82.3c19.6 0 35.56 15.92 35.56 35.57z" fill="#ff3369"/></svg>